<svg version="1.1" id="Layer_1" xmlns="http://www.w3.org/2000/svg" xmlns:xlink="http://www.w3.org/1999/xlink" x="0px" y="0px"
	 width="100%" viewBox="0 0 2000 1500" enable-background="new 0 0 2000 1500" xml:space="preserve">
<path fill="#FFFFFF" opacity="1.000000" stroke="none" 
	d="
M1402.000000,1501.000000 
	C936.166809,1501.000000 470.833618,1500.994751 5.500436,1501.092896 
	C1.752322,1501.093628 0.906343,1500.250366 0.907081,1496.500366 
	C1.004935,999.500549 1.004926,502.500702 0.907308,5.500882 
	C0.906572,1.753957 1.747993,0.906576 5.499147,0.907122 
	C669.165588,1.003712 1332.832031,1.003690 1996.498535,0.907545 
	C2000.244019,0.907002 2001.093872,1.745877 2001.093140,5.498556 
	C2000.995117,502.498383 2000.994995,999.498230 2001.092529,1496.498047 
	C2001.093262,1500.242310 2000.256104,1501.095947 1996.501953,1501.093994 
	C1798.501343,1500.987549 1600.500610,1501.000000 1402.000000,1501.000000 
z"/>
<path fill="#000000" opacity="1.000000" stroke="none" 
	d="
M955.000000,408.999390 
	C1218.322998,408.999390 1481.145996,409.013702 1743.968994,408.887817 
	C1748.800171,408.885498 1750.193848,409.760529 1750.187988,414.936554 
	C1750.017334,565.430420 1750.021362,715.924561 1750.177612,866.418518 
	C1750.182739,871.337219 1748.917236,872.239563 1744.222534,872.238403 
	C1248.742065,872.118225 753.261536,872.118286 257.781036,872.238037 
	C253.092941,872.239197 251.816818,871.347046 251.821945,866.422058 
	C251.978470,715.761414 251.974823,565.100708 251.832413,414.440063 
	C251.828003,409.765167 253.151306,408.901550 257.527649,408.903564 
	C489.851746,409.011993 722.175842,408.999390 955.000000,408.999390 
z"/>
<path fill="#677C83" opacity="1.000000" stroke="none" 
	d="
M314.412720,950.456787 
	C311.928955,948.223022 313.768555,947.585388 315.398804,947.248962 
	C328.820496,944.479309 336.882660,935.318054 343.053650,924.002991 
	C344.418701,921.499939 345.794434,919.656128 348.878876,919.324280 
	C355.319977,918.631287 356.741364,920.283142 354.401276,926.216797 
	C348.666626,940.757751 342.974701,955.316589 337.081726,969.793335 
	C335.882874,972.738525 335.926666,974.092651 339.447632,974.765259 
	C350.878326,976.948730 362.276825,979.310852 373.652283,981.768188 
	C378.285004,982.768860 381.228943,981.993835 383.152649,976.956116 
	C386.113159,969.203247 390.066315,961.835144 393.384735,954.210876 
	C394.953613,950.606201 396.330139,947.049377 396.273865,942.779358 
	C396.114441,930.687195 414.763062,917.228577 424.594299,921.964539 
	C427.000824,923.123840 429.344391,924.434753 429.618713,927.913635 
	C424.455200,927.080627 421.077515,930.010803 417.854889,933.244507 
	C411.434143,939.687622 406.780304,947.372559 402.474243,955.286804 
	C397.643097,964.166077 392.972229,973.127014 388.698547,983.052734 
	C396.591705,983.271606 403.455383,982.473328 409.172119,977.311035 
	C409.838470,976.709412 410.495758,975.444946 411.566498,976.473572 
	C412.402527,977.276794 411.932343,978.387634 411.322571,979.203979 
	C407.959839,983.706238 402.825165,986.051941 397.840363,985.666748 
	C387.738007,984.885925 384.271973,990.391724 382.178711,998.720947 
	C380.475708,1005.497131 378.134460,1012.144592 378.161133,1019.211731 
	C378.193420,1027.776245 382.041595,1030.126953 389.599579,1026.166260 
	C400.114685,1020.656067 408.320251,1012.402344 415.826263,1003.385193 
	C416.571594,1002.489807 417.222778,1001.513428 417.996765,1000.645142 
	C418.732117,999.820251 419.443939,998.347473 420.766998,999.201660 
	C422.464386,1000.297424 421.049438,1001.617493 420.416748,1002.595032 
	C415.025574,1010.924072 408.125336,1017.869446 400.539459,1024.201904 
	C395.812561,1028.147949 390.518433,1030.648315 384.406525,1031.520020 
	C375.627411,1032.772095 370.153442,1028.329346 370.143066,1019.374512 
	C370.131866,1009.742859 372.979156,1000.689026 376.545563,991.844788 
	C377.224426,990.161316 377.931732,988.489380 378.864380,986.235962 
	C368.275269,984.804321 357.998138,983.404968 347.717743,982.030518 
	C344.254364,981.567505 340.659058,981.592529 337.346405,980.629639 
	C333.410645,979.485657 332.211395,981.332214 330.810944,984.440430 
	C323.071167,1001.618225 314.547485,1018.388489 302.664001,1033.159790 
	C295.271576,1042.348877 286.950653,1050.446777 274.952423,1053.406494 
	C269.973663,1054.634888 265.020447,1054.576660 260.269257,1052.527100 
	C254.296051,1049.950439 251.176575,1043.777710 252.918335,1038.340454 
	C254.024796,1038.185669 254.313965,1039.108398 254.651245,1039.792847 
	C258.884827,1048.384155 265.656494,1051.224609 275.074860,1048.217407 
	C283.794983,1045.433228 290.466400,1039.693848 296.246002,1032.896484 
	C309.039490,1017.850159 317.109406,1000.137268 324.497162,982.065979 
	C325.066589,980.673035 325.877228,979.119690 323.201813,978.992310 
	C314.396240,978.573181 305.541534,977.595093 296.906982,980.185181 
	C290.241669,982.184631 284.960724,985.987061 282.320099,992.762512 
	C281.342377,995.271057 280.393799,997.730713 281.763336,1000.445190 
	C282.265076,1001.439758 282.792816,1002.794861 281.254181,1003.422058 
	C279.920105,1003.965759 278.944824,1002.985352 278.436401,1001.949524 
	C277.712341,1000.474609 276.934845,998.880432 276.799561,997.284668 
	C275.609039,983.242859 280.767578,971.726074 297.443024,969.996643 
	C306.317291,969.076233 315.068939,970.239807 323.766693,971.655762 
	C326.971588,972.177551 328.571533,971.773743 329.611816,968.415833 
	C332.303131,959.729187 335.375977,951.160706 337.910645,942.169922 
	C330.652161,946.655884 323.165375,949.849060 314.412720,950.456787 
z"/>
<path fill="#667C83" opacity="1.000000" stroke="none" 
	d="
M894.631409,998.419617 
	C886.016602,1006.883057 878.238647,1016.078430 868.385315,1023.075623 
	C865.955444,1024.801270 863.399841,1026.442261 860.697449,1027.672607 
	C854.841614,1030.338623 849.134949,1028.931763 844.367676,1023.999023 
	C840.008240,1019.488159 839.156799,1014.375671 841.994080,1008.384766 
	C845.115662,1001.793579 849.910645,996.519775 855.409790,991.817749 
	C863.175110,985.177979 871.502747,979.359863 880.982178,975.497192 
	C888.168335,972.569031 895.656006,970.755432 903.174683,974.569702 
	C906.064636,976.035767 906.238220,973.672729 906.890381,972.202515 
	C910.806946,963.372925 915.029358,954.701538 919.974304,946.397949 
	C925.020264,937.924805 930.577393,929.842529 938.157959,923.369629 
	C943.702393,918.635315 949.920410,915.895386 957.411865,916.893738 
	C964.081177,917.782471 967.313293,922.510803 965.436218,928.978943 
	C962.849304,937.893311 957.106995,944.839355 950.865479,951.362732 
	C938.963867,963.801575 925.144836,974.044434 911.876038,984.908630 
	C909.484558,986.866760 907.783325,989.042725 906.605652,991.941345 
	C902.081787,1003.076477 898.516296,1014.488953 896.415100,1026.314453 
	C895.513184,1031.390259 895.077332,1036.591064 896.953430,1041.616089 
	C899.063416,1047.267334 901.837097,1048.127197 906.792297,1044.791260 
	C907.976501,1043.994019 908.946106,1042.641235 910.724854,1043.089600 
	C911.676331,1044.422852 910.612732,1045.274414 909.918457,1046.090576 
	C905.701172,1051.049561 900.111450,1050.537231 894.694458,1049.362183 
	C889.327820,1048.198242 887.426086,1043.828247 887.101868,1038.853149 
	C886.497681,1029.581421 888.284363,1020.630859 891.263428,1011.885193 
	C892.603333,1007.951355 893.909607,1004.006104 895.297241,999.696533 
	C895.329102,998.965454 895.558838,998.495911 895.217102,998.264709 
	C894.669373,997.894226 895.470032,998.200439 894.631409,998.419617 
z"/>
<path fill="#677C83" opacity="1.000000" stroke="none" 
	d="
M1187.941406,992.601807 
	C1182.827881,997.153320 1179.363647,1002.918823 1173.824097,1007.298462 
	C1172.833252,1004.396790 1174.301392,1002.723938 1175.565430,1001.110107 
	C1178.747192,997.047791 1182.116333,993.130798 1185.251099,989.033691 
	C1187.025635,986.714478 1189.999268,984.751587 1188.003662,980.956970 
	C1187.419556,979.846130 1188.538330,978.260559 1189.710083,978.490417 
	C1195.185303,979.564514 1195.389771,974.776001 1196.783447,971.951599 
	C1203.345337,958.653992 1210.099854,945.493835 1219.294922,933.768188 
	C1223.317505,928.638550 1227.829956,923.982666 1233.372437,920.434448 
	C1238.028198,917.454041 1243.035034,916.023315 1248.575317,917.010437 
	C1254.132324,918.000610 1257.132812,922.302979 1256.174072,927.852112 
	C1255.115845,933.976501 1251.736694,938.915710 1247.977295,943.615967 
	C1238.639526,955.290588 1227.380981,965.181763 1215.243042,973.500061 
	C1202.220337,982.424683 1195.392090,994.337341 1191.656738,1009.270996 
	C1191.931030,1009.817932 1191.023926,1010.695557 1192.339844,1010.563232 
	C1201.294556,1001.227173 1209.594360,991.430725 1219.409912,983.110779 
	C1223.223877,979.877930 1227.099976,976.734009 1231.779785,974.781006 
	C1234.007202,973.851440 1236.343506,973.213928 1238.407837,974.827271 
	C1240.541504,976.494873 1240.146362,979.050598 1239.804810,981.335938 
	C1239.355225,984.341858 1237.744995,986.914246 1236.294434,989.543579 
	C1231.640869,997.978394 1226.451538,1006.212158 1225.696045,1016.200073 
	C1225.620728,1017.195923 1225.502441,1018.194397 1225.516357,1019.190125 
	C1225.608765,1025.802124 1229.296753,1028.117676 1234.906860,1024.639404 
	C1244.325562,1018.799927 1252.118408,1011.054016 1259.332275,1002.692810 
	C1260.521729,1001.314270 1261.572144,998.088196 1263.510254,999.464661 
	C1265.448608,1000.841370 1262.891968,1002.993347 1261.811279,1004.421326 
	C1255.760498,1012.416809 1248.945679,1019.716675 1240.901489,1025.750732 
	C1236.867798,1028.776367 1232.403320,1030.968872 1227.182739,1031.151855 
	C1220.241821,1031.395020 1216.276367,1027.710327 1215.911987,1020.811279 
	C1215.566406,1014.270325 1217.684692,1008.343567 1220.310425,1002.562378 
	C1222.441162,997.870789 1224.842773,993.302673 1227.079224,988.658081 
	C1227.560791,987.657776 1228.483643,986.483643 1227.460205,985.461182 
	C1226.326294,984.328308 1224.984009,984.994934 1223.795166,985.657715 
	C1219.088501,988.281616 1215.092163,991.791260 1211.499390,995.755676 
	C1203.548584,1004.528625 1196.634766,1014.134155 1189.510986,1023.561279 
	C1186.677490,1027.310913 1183.226562,1029.881226 1178.824707,1031.316040 
	C1177.727905,1031.673462 1176.564575,1032.378662 1175.564453,1031.392944 
	C1174.464600,1030.308716 1175.565063,1029.204956 1175.922852,1028.194214 
	C1179.971924,1016.757446 1184.068970,1005.337646 1188.170654,993.537354 
	C1188.210449,992.945374 1188.232788,992.729309 1187.941406,992.601807 
z"/>
<path fill="#667B83" opacity="1.000000" stroke="none" 
	d="
M1022.865356,998.186157 
	C1026.729004,994.016052 1029.959595,989.514404 1033.894165,985.748413 
	C1040.946777,978.997559 1048.878906,973.897400 1059.403076,976.717041 
	C1067.279541,978.827454 1070.288574,983.689148 1068.745117,991.687012 
	C1067.778320,996.696167 1065.369873,1001.043762 1062.209717,1004.994324 
	C1051.504883,1018.376709 1037.605591,1026.633423 1021.030029,1030.536865 
	C1019.429138,1030.913940 1017.602966,1031.364258 1016.102600,1030.959839 
	C1009.527649,1029.187866 1007.531494,1033.054321 1005.921692,1038.291748 
	C1002.516418,1049.370117 997.485779,1059.930420 996.296387,1071.709717 
	C995.889099,1075.743530 993.844360,1079.605591 992.601135,1083.562988 
	C990.993896,1088.679321 987.611694,1091.627075 982.266174,1092.393188 
	C980.655762,1092.624023 978.868469,1093.744385 977.563538,1092.332275 
	C976.002014,1090.642456 977.499878,1088.829102 978.237244,1087.274414 
	C983.795959,1075.553589 988.818054,1063.603149 993.520813,1051.521729 
	C1001.778992,1030.306519 1010.230469,1009.161560 1017.513550,987.580566 
	C1019.053894,983.016235 1020.598328,978.442749 1021.172852,973.617920 
	C1021.413147,971.600708 1021.638367,969.395081 1024.228394,969.131348 
	C1026.993042,968.849854 1029.999756,968.078369 1032.342163,970.272339 
	C1034.404663,972.203979 1033.678467,974.670654 1032.647583,976.767517 
	C1029.350098,983.475464 1025.318726,989.818604 1022.603027,997.205261 
	C1022.533997,997.765259 1022.541748,997.975708 1022.865356,998.186157 
z"/>
<path fill="#677C84" opacity="1.000000" stroke="none" 
	d="
M686.479309,992.457275 
	C680.313293,997.713135 675.617249,1003.725403 671.776611,1010.412292 
	C670.706299,1012.275757 669.591736,1014.222351 669.085510,1016.275818 
	C668.332520,1019.329895 667.649231,1022.834106 670.577087,1025.075073 
	C673.381226,1027.221313 676.089417,1024.942993 678.310303,1023.472229 
	C688.495300,1016.727051 697.311279,1008.372253 705.684387,999.524902 
	C709.689819,995.292542 713.840088,991.196350 717.809021,986.930847 
	C719.794006,984.797485 721.952698,984.542358 724.585144,985.360962 
	C728.149536,986.469482 729.070496,988.087891 726.778442,991.490417 
	C721.216919,999.746338 717.406250,1008.705505 716.981262,1018.841736 
	C716.873352,1021.415100 716.935852,1024.019653 719.437927,1025.481323 
	C722.074280,1027.021240 724.661072,1025.994873 726.937927,1024.478394 
	C736.433350,1018.153931 744.697327,1010.480286 751.780579,1001.529907 
	C752.646545,1000.435547 753.415466,998.208679 755.061096,999.257141 
	C757.204651,1000.623047 755.098572,1002.278259 754.255859,1003.382263 
	C747.154053,1012.687195 739.392334,1021.397949 729.310547,1027.582153 
	C723.944336,1030.873779 717.802795,1033.389648 711.926697,1029.602295 
	C705.974426,1025.765991 707.067749,1019.305054 707.768188,1013.230835 
	C708.088989,1010.449524 709.505188,1007.821167 708.965759,1004.866821 
	C706.688660,1004.857361 705.958557,1006.807373 704.818542,1008.093262 
	C699.051453,1014.597900 692.864441,1020.646667 685.592407,1025.449951 
	C679.987915,1029.151855 674.072815,1030.628906 667.798645,1026.848999 
	C660.645569,1022.539490 658.445435,1015.456543 662.121033,1007.970032 
	C665.719299,1000.640991 671.196655,994.828369 677.608582,989.936584 
	C688.350586,981.741272 699.156982,973.603027 713.413391,972.582825 
	C720.937500,972.044312 725.829224,974.728210 727.514404,980.640991 
	C710.635132,973.103760 698.958923,983.583923 686.479309,992.457275 
z"/>
<path fill="#677C84" opacity="1.000000" stroke="none" 
	d="
M1523.305420,1010.490173 
	C1532.630005,1000.792847 1541.316772,990.676208 1551.433716,981.947632 
	C1554.856689,978.994385 1558.440186,976.328369 1562.758667,974.801025 
	C1565.012329,974.003967 1567.362183,973.282227 1569.376709,975.047729 
	C1571.402466,976.823059 1570.975342,979.220398 1570.407837,981.564697 
	C1569.097534,986.976440 1566.107056,991.634644 1563.772949,996.588684 
	C1560.444946,1003.652405 1556.687744,1010.590759 1556.802124,1018.736023 
	C1556.905273,1026.079346 1560.454834,1028.216797 1566.640503,1024.304199 
	C1576.003906,1018.381653 1583.884888,1010.736389 1590.953003,1002.240112 
	C1591.697388,1001.345215 1592.320557,1000.339050 1593.130371,999.512146 
	C1593.747803,998.882019 1594.602173,998.737610 1595.358887,999.402466 
	C1596.001221,999.966919 1595.695801,1000.605408 1595.364258,1001.182556 
	C1594.867310,1002.047668 1594.379883,1002.926758 1593.792847,1003.730103 
	C1587.564331,1012.253601 1580.399780,1019.869263 1571.826782,1026.082153 
	C1567.269775,1029.384766 1562.303467,1031.489624 1556.492188,1030.999512 
	C1550.079834,1030.458374 1546.932129,1027.084839 1546.829956,1020.696960 
	C1546.665771,1010.443848 1551.460938,1001.810425 1555.607056,992.919006 
	C1556.705444,990.563660 1560.046265,987.592102 1557.464478,985.519836 
	C1555.212524,983.712219 1552.430542,987.029846 1550.233154,988.619019 
	C1543.403442,993.558533 1538.348022,1000.232544 1533.184814,1006.760559 
	C1528.641235,1012.505066 1524.147095,1018.295776 1519.845337,1024.221680 
	C1517.263916,1027.777466 1513.844604,1029.867554 1509.834839,1031.252930 
	C1508.755859,1031.625732 1507.595581,1032.393188 1506.571777,1031.442749 
	C1505.464111,1030.414307 1506.440552,1029.283691 1506.806274,1028.241577 
	C1511.319092,1015.379822 1515.868530,1002.530884 1520.352051,989.658936 
	C1521.388916,986.681885 1522.137817,983.605042 1523.156982,980.621094 
	C1523.975342,978.224915 1524.953369,976.023376 1528.143555,975.845398 
	C1533.730957,975.533691 1535.134033,977.330933 1533.106934,982.518433 
	C1529.659424,991.341187 1526.239136,1000.174683 1522.757568,1009.371704 
	C1522.692505,1010.076416 1522.450806,1010.521179 1522.771362,1010.723083 
	C1523.329834,1011.074829 1522.527832,1010.860535 1523.305420,1010.490173 
z"/>
<path fill="#677D84" opacity="1.000000" stroke="none" 
	d="
M1694.418335,1025.623047 
	C1698.941895,1029.489380 1703.873657,1028.733643 1708.483765,1027.442261 
	C1723.178711,1023.325928 1735.341431,1015.242249 1744.714966,1003.107300 
	C1745.223267,1002.449097 1745.644775,1001.722717 1746.166870,1001.076660 
	C1746.961182,1000.093262 1747.639526,998.297119 1749.178467,999.213013 
	C1750.933838,1000.257629 1749.344238,1001.568237 1748.706421,1002.554810 
	C1747.352783,1004.648010 1745.958374,1006.742859 1744.343018,1008.633911 
	C1734.961182,1019.617798 1724.072876,1028.382202 1709.504272,1031.400024 
	C1703.708984,1032.600586 1697.917114,1032.424072 1692.315308,1030.226440 
	C1684.319580,1027.089844 1680.935303,1020.739563 1682.617920,1012.338501 
	C1683.482056,1008.024902 1684.985840,1003.965637 1687.584961,1000.456665 
	C1696.418823,988.529785 1708.003418,980.066101 1721.525513,974.188538 
	C1723.312012,973.411987 1725.374390,973.108643 1727.339478,972.937866 
	C1731.257324,972.597351 1735.242188,972.747559 1737.481934,976.672546 
	C1739.809326,980.751221 1739.718262,985.207581 1737.139771,989.029968 
	C1729.243896,1000.735168 1717.281494,1005.674927 1703.984253,1008.128784 
	C1702.946289,1008.320374 1701.315430,1008.640869 1701.107910,1007.077637 
	C1700.893188,1005.461487 1702.646118,1005.633789 1703.636475,1005.342773 
	C1713.440308,1002.461243 1721.711060,996.981384 1729.080078,990.107422 
	C1732.022461,987.362854 1735.424805,983.422363 1732.633789,979.763733 
	C1729.989624,976.297485 1725.725098,979.447815 1722.755859,981.217957 
	C1709.899414,988.882263 1699.385742,998.844360 1693.667725,1013.049805 
	C1692.032104,1017.113037 1690.883423,1021.361755 1694.418335,1025.623047 
z"/>
<path fill="#687D84" opacity="1.000000" stroke="none" 
	d="
M513.274902,1000.343445 
	C521.657654,989.148132 532.327087,981.350098 544.387207,975.327820 
	C547.058105,973.994080 549.900940,973.017761 552.965515,972.880493 
	C556.910156,972.703796 560.846497,972.782349 563.106262,976.684937 
	C565.469971,980.767029 565.097046,985.063477 562.826782,989.060608 
	C561.009583,992.260010 558.514709,994.964355 555.532104,997.186218 
	C548.769653,1002.224121 541.251038,1005.687439 533.097839,1007.699768 
	C530.970886,1008.224670 528.593750,1008.954834 526.442749,1007.369995 
	C526.395020,1005.494019 527.946960,1005.722046 528.878845,1005.459229 
	C538.896606,1002.634094 547.231323,997.010010 554.768066,990.041077 
	C555.498291,989.365784 556.203674,988.631592 556.774597,987.821838 
	C558.535828,985.323914 560.525269,982.288391 558.419739,979.646423 
	C556.305481,976.993347 553.078796,978.869568 550.634949,980.117249 
	C537.500977,986.822754 527.498047,996.788513 520.609985,1009.809021 
	C518.978943,1012.892090 517.870300,1016.242126 517.920898,1019.840149 
	C517.983643,1024.305176 520.598511,1027.466309 524.997986,1028.067505 
	C528.316528,1028.521118 531.621765,1028.302124 534.873108,1027.300049 
	C549.460571,1022.803650 561.603516,1014.788513 570.799622,1002.495911 
	C571.297974,1001.829834 571.721191,1001.105042 572.246216,1000.462219 
	C572.962646,999.585144 573.688843,998.309021 575.037781,999.309631 
	C576.139832,1000.126892 575.200317,1001.084778 574.795898,1001.940796 
	C574.725403,1002.089966 574.621399,1002.223999 574.527405,1002.361267 
	C564.725403,1016.685059 552.372803,1027.530396 534.925598,1031.455566 
	C531.295532,1032.272217 527.615295,1032.261841 523.992798,1031.797119 
	C510.819580,1030.107178 505.166412,1021.307861 509.208893,1008.710754 
	C510.111755,1005.897217 511.758850,1003.322510 513.274902,1000.343445 
z"/>
<path fill="#687D84" opacity="1.000000" stroke="none" 
	d="
M1403.047241,998.823975 
	C1401.544556,1003.347656 1399.416992,1007.107666 1396.879883,1010.626953 
	C1395.513428,1012.522522 1394.564453,1014.399780 1396.288940,1016.472351 
	C1397.888550,1018.394653 1400.134155,1018.406189 1402.272949,1017.777771 
	C1404.858276,1017.018127 1407.009888,1015.394958 1409.038330,1013.644775 
	C1413.466431,1009.824036 1417.360474,1005.503906 1421.020874,1000.953430 
	C1421.777832,1000.012451 1422.566406,998.259033 1424.119873,999.385315 
	C1425.401123,1000.314087 1424.172485,1001.589050 1423.574097,1002.414978 
	C1419.076538,1008.623230 1414.468384,1014.767456 1408.084595,1019.222107 
	C1402.016235,1023.456787 1398.581055,1023.530396 1392.453857,1019.197815 
	C1390.824707,1018.045715 1390.460083,1019.151245 1389.750366,1019.814758 
	C1387.805542,1021.633118 1386.056885,1023.675781 1384.021118,1025.379272 
	C1379.693604,1029.000610 1374.757446,1031.127686 1368.983032,1031.185669 
	C1359.774414,1031.278320 1353.846069,1026.038452 1353.182129,1016.852539 
	C1352.688354,1010.022644 1354.549072,1003.677307 1357.657349,997.663574 
	C1362.094727,989.078430 1368.113647,981.871155 1376.267334,976.564392 
	C1380.582153,973.755981 1385.254272,972.243042 1390.463623,972.982117 
	C1395.503540,973.697083 1398.653442,977.770325 1397.475220,982.007446 
	C1397.212646,982.951721 1397.006958,984.108521 1395.751709,984.141785 
	C1394.726685,984.169006 1394.487183,983.182861 1394.376099,982.396912 
	C1393.662354,977.355347 1390.146729,978.430908 1387.199585,979.413757 
	C1383.338501,980.701355 1380.461060,983.620056 1377.663452,986.492737 
	C1369.505005,994.870422 1363.043335,1004.172363 1361.446655,1016.153625 
	C1360.910034,1020.181335 1361.451660,1024.036987 1364.690796,1026.610229 
	C1368.144165,1029.353516 1371.965942,1028.019897 1375.488281,1026.205322 
	C1380.173096,1023.791809 1383.734497,1020.087280 1386.985474,1016.028259 
	C1388.112915,1014.620605 1388.409058,1013.159363 1388.078857,1011.392273 
	C1387.755615,1009.662598 1388.141968,1007.725952 1389.789795,1007.032104 
	C1397.026611,1003.985046 1395.923950,997.740906 1395.865967,991.873352 
	C1395.859741,991.230286 1395.530640,990.592102 1395.362915,989.948669 
	C1394.738647,987.553589 1395.839233,986.008850 1397.996460,985.322388 
	C1400.239502,984.608582 1401.965210,985.653137 1402.875732,987.707458 
	C1404.428711,991.211914 1404.317139,994.823975 1403.047241,998.823975 
z"/>
<path fill="#FCFCFC" opacity="1.000000" stroke="none" 
	d="
M1570.331299,690.380249 
	C1562.541382,697.601074 1554.685547,695.285278 1547.065308,691.096497 
	C1539.023926,686.676270 1532.669434,680.983582 1533.203369,670.494934 
	C1534.116821,652.551025 1540.173218,636.032288 1547.012207,619.760254 
	C1553.673950,603.910278 1561.775513,588.821533 1573.281738,575.868347 
	C1576.061890,572.738586 1578.573853,568.280884 1583.214478,568.215698 
	C1590.453735,568.113892 1597.286377,570.344299 1603.387573,574.480286 
	C1606.183472,576.375549 1603.693848,577.504028 1602.796509,578.746826 
	C1582.890503,606.312378 1568.641479,636.437378 1561.605225,669.813293 
	C1560.896973,673.172424 1559.293457,677.618408 1562.536499,679.581909 
	C1565.452637,681.347412 1568.591675,677.866211 1571.126221,675.901855 
	C1583.488525,666.320496 1591.910645,653.452576 1599.619873,640.207703 
	C1611.323486,620.100159 1622.565430,599.721008 1633.772095,579.330017 
	C1635.549072,576.096985 1637.469360,575.271057 1640.869385,575.856445 
	C1646.971802,576.907471 1652.899658,578.368713 1658.322388,581.456299 
	C1660.151123,582.497498 1661.459351,583.483643 1660.106567,586.122620 
	C1643.138672,619.223389 1633.123901,655.031006 1619.861328,689.578979 
	C1609.324341,717.026978 1594.649536,742.050781 1573.023804,762.432739 
	C1558.872314,775.770264 1542.837891,784.994446 1522.453735,782.953674 
	C1510.637329,781.770691 1499.698975,778.038574 1490.814819,769.739075 
	C1488.817261,767.873047 1486.398071,765.723450 1488.725220,762.471436 
	C1489.870361,760.871399 1491.081665,759.622009 1493.055298,761.668823 
	C1502.257446,771.212524 1513.324341,769.480347 1524.262939,766.233948 
	C1541.448853,761.133545 1553.927002,749.358459 1564.621582,735.682434 
	C1583.682007,711.308533 1594.924805,683.155945 1603.146851,653.638245 
	C1603.310059,653.052063 1603.259888,652.406250 1602.858643,651.506348 
	C1592.868286,665.088318 1583.749634,679.319336 1570.331299,690.380249 
z"/>
<path fill="#FCFCFC" opacity="1.000000" stroke="none" 
	d="
M847.165649,636.232910 
	C843.133118,643.979553 838.481140,651.064575 837.676453,659.954834 
	C846.287537,649.822815 854.692383,639.506165 863.558350,629.602295 
	C876.559204,615.079468 889.640808,600.582947 906.006287,589.613098 
	C910.716614,586.455750 915.592834,583.642944 921.286133,582.554321 
	C929.761780,580.933655 939.761536,586.761963 942.479675,594.928772 
	C942.768799,595.797485 943.021790,596.387878 942.078552,597.010193 
	C932.686340,603.206726 928.700439,613.341492 923.737610,622.670959 
	C917.160217,635.035645 911.894897,647.943237 909.496399,661.863708 
	C908.840149,665.672363 908.772583,669.504639 909.051758,673.325012 
	C909.432983,678.542175 912.390686,680.754089 917.490540,679.700928 
	C919.596375,679.266052 921.643188,678.516296 923.688049,677.824585 
	C925.291565,677.282227 926.685669,677.312561 927.482788,679.019897 
	C928.188477,680.531250 928.970642,682.186707 927.131836,683.476135 
	C918.588257,689.467407 909.962891,695.013489 898.639832,692.291687 
	C888.258728,689.796387 882.986511,683.023804 881.974976,670.928589 
	C880.986206,659.106018 884.352234,648.220581 888.561646,637.471191 
	C890.778687,631.809814 893.095581,626.187439 895.724182,619.661743 
	C888.330200,622.701416 882.831909,626.755127 877.746033,631.477234 
	C860.950745,647.071350 846.262634,664.483459 832.913818,683.077820 
	C828.839233,688.753540 824.415161,694.177368 820.200195,699.753601 
	C817.643250,703.136414 815.114380,703.410706 812.285095,700.055969 
	C807.166016,693.986145 803.852844,687.112854 804.752319,679.091248 
	C807.355225,655.880859 815.326599,634.213440 824.530945,612.950989 
	C831.144775,597.672607 838.573914,582.845581 848.170532,569.146179 
	C850.924438,565.214966 853.329102,565.051941 857.006958,567.584473 
	C864.428528,572.694885 869.072632,579.787231 872.550049,587.890137 
	C873.603577,590.344971 872.341858,592.100586 871.410522,593.959717 
	C864.178955,608.395081 855.104126,621.775696 847.165649,636.232910 
z"/>
<path fill="#FCFCFC" opacity="1.000000" stroke="none" 
	d="
M1038.235107,527.275391 
	C1021.734375,563.250427 1008.476990,600.130920 994.031372,636.529907 
	C988.279846,651.021912 981.922241,665.297607 977.748901,680.373169 
	C976.053467,686.497803 976.145935,686.494324 982.171570,686.151489 
	C995.554749,685.390137 1008.208130,680.911377 1021.269043,678.508301 
	C1028.644043,677.151367 1036.064209,676.240051 1043.549683,675.820862 
	C1045.065796,675.735962 1046.399414,675.542419 1047.298584,677.336731 
	C1051.245728,685.213806 1053.895508,693.254944 1052.136597,702.281860 
	C1051.657104,704.742310 1050.590210,705.185608 1048.446411,704.976318 
	C1021.636841,702.358704 995.328491,706.715088 969.009460,710.802307 
	C966.492310,711.193237 964.495178,710.424988 962.439636,709.222290 
	C954.572693,704.619141 949.434021,697.489929 944.469360,690.149536 
	C942.837769,687.737183 944.499207,685.975708 945.347839,684.170349 
	C963.948303,644.597595 979.463135,603.838928 992.490967,562.114624 
	C998.685852,542.274048 1003.583130,522.101440 1007.928162,501.793152 
	C1008.592834,498.686371 1009.300842,497.772003 1012.753113,498.745575 
	C1024.621338,502.092682 1033.022217,509.704346 1040.029175,519.385071 
	C1042.464355,522.749573 1038.901611,524.420349 1038.235107,527.275391 
z"/>
<path fill="#FDFDFD" opacity="1.000000" stroke="none" 
	d="
M437.353943,524.056152 
	C422.538269,555.541748 410.459015,587.725464 398.093750,619.789917 
	C390.925842,638.377136 382.674133,656.566772 376.656891,675.570312 
	C372.362457,689.133179 372.299988,687.151367 385.408630,685.485168 
	C398.392700,683.834778 411.107666,680.149719 424.004639,677.693176 
	C429.541870,676.638489 435.245056,676.469727 440.863861,675.820312 
	C442.662109,675.612427 444.008362,675.783386 444.961578,677.651245 
	C448.749817,685.074585 450.967194,692.800232 449.839264,701.211975 
	C449.516296,703.620483 448.907135,705.372803 445.527252,705.018982 
	C419.390900,702.282959 393.714722,706.688049 368.030762,710.512817 
	C364.616455,711.021240 361.839874,710.598999 359.081665,708.802429 
	C351.792419,704.054871 346.733307,697.285706 341.928864,690.223572 
	C340.397980,687.973267 341.753632,686.444031 342.545258,684.759827 
	C362.431763,642.449890 378.923950,598.848450 392.371948,554.084534 
	C397.491913,537.041809 401.615112,519.747070 405.184113,502.326599 
	C405.984467,498.419983 407.331055,497.767395 411.066528,498.934174 
	C422.434265,502.484924 430.673096,509.834351 437.424744,519.281494 
	C438.580353,520.898438 438.647003,522.203247 437.353943,524.056152 
z"/>
<path fill="#FCFCFC" opacity="1.000000" stroke="none" 
	d="
M1370.442383,580.383484 
	C1352.498779,606.742432 1339.025391,634.751343 1331.613770,665.502258 
	C1330.838257,668.720215 1330.521118,672.057190 1330.127930,675.355225 
	C1329.927246,677.038452 1330.159302,678.969543 1331.741577,679.768555 
	C1333.294434,680.552673 1334.443604,678.910034 1335.569336,678.011841 
	C1340.307617,674.231384 1343.919922,669.400513 1347.522705,664.623718 
	C1355.441162,654.124939 1363.264893,643.550537 1370.921631,632.859741 
	C1377.045044,624.309814 1381.795288,615.037720 1385.329346,605.067444 
	C1388.847656,595.141235 1393.929565,585.997803 1401.007080,578.047913 
	C1402.736572,576.105347 1404.516602,575.395081 1407.110718,575.726501 
	C1413.447754,576.536133 1419.473511,578.186035 1425.105713,581.253235 
	C1427.559692,582.589661 1428.185059,584.107483 1426.861816,586.817993 
	C1420.596680,599.652344 1414.363037,612.506287 1408.401489,625.483398 
	C1402.500854,638.328064 1396.831299,651.282837 1395.843018,665.698486 
	C1395.261963,674.174866 1396.485718,682.286316 1400.121704,690.000305 
	C1400.681152,691.187012 1401.658813,692.497559 1400.828979,693.741638 
	C1399.740112,695.373962 1398.021484,694.316101 1396.702637,694.003601 
	C1389.181030,692.221436 1382.098267,689.160461 1375.991211,684.519714 
	C1368.653076,678.943726 1367.637207,670.528320 1367.620361,662.000916 
	C1367.616211,659.850037 1367.978516,657.698425 1368.222412,654.990967 
	C1365.678345,656.362000 1364.249634,658.314331 1362.803955,660.162598 
	C1356.238770,668.556824 1349.779053,677.033508 1343.206909,685.422119 
	C1335.374634,695.419373 1330.956177,696.907593 1320.678711,693.210754 
	C1308.637573,688.879578 1302.408203,680.991699 1302.637329,670.414917 
	C1303.095825,649.246826 1311.209717,630.260193 1319.721802,611.459961 
	C1326.123901,597.319641 1333.725708,583.830627 1345.027344,572.875671 
	C1347.426758,570.549866 1349.555298,567.444397 1353.768433,568.045959 
	C1360.418213,568.995361 1366.994019,570.282532 1372.244751,574.756409 
	C1374.880493,577.002075 1371.139893,578.269043 1370.442383,580.383484 
z"/>
<path fill="#FCFCFC" opacity="1.000000" stroke="none" 
	d="
M1072.612305,639.622253 
	C1080.246826,616.899475 1089.387085,595.308899 1105.003906,577.297852 
	C1114.721924,566.089905 1114.243408,565.925964 1130.330566,571.166687 
	C1131.423950,571.522949 1132.414917,572.186768 1133.466797,572.679443 
	C1136.992920,574.331299 1137.751709,575.952942 1135.133545,579.714050 
	C1116.744629,606.129456 1102.951538,634.721924 1095.550293,666.190491 
	C1094.829834,669.253418 1094.558838,672.427979 1094.182739,675.563171 
	C1093.997192,677.111084 1094.383911,678.807983 1095.615967,679.644104 
	C1097.208618,680.724854 1098.329590,679.025024 1099.432251,678.160217 
	C1104.738647,673.998657 1108.647095,668.543335 1112.666870,663.256104 
	C1120.120117,653.452576 1127.375366,643.495361 1134.565674,633.496033 
	C1140.803711,624.820984 1145.738892,615.466064 1149.324829,605.339111 
	C1152.841431,595.408203 1157.905762,586.266418 1164.897705,578.259277 
	C1166.710693,576.183044 1168.574829,575.338440 1171.399780,575.738098 
	C1177.549927,576.608154 1183.428711,578.154358 1188.923584,581.110291 
	C1191.525757,582.510132 1192.335571,584.022095 1190.861328,587.027649 
	C1184.353882,600.294495 1177.936890,613.610962 1171.789185,627.047607 
	C1165.343140,641.136536 1159.347778,655.386230 1159.792847,671.399475 
	C1159.977051,678.022766 1161.620605,684.206909 1164.311035,690.176575 
	C1164.867432,691.411133 1165.670166,692.763062 1164.788208,693.923279 
	C1163.812744,695.206360 1162.263550,694.340454 1161.042847,694.058716 
	C1153.338501,692.280212 1146.107666,689.146851 1139.897705,684.373901 
	C1132.774536,678.898865 1131.770264,670.617615 1131.707642,662.270325 
	C1131.690552,659.994629 1132.023315,657.716248 1132.247803,654.745178 
	C1128.392212,657.760254 1125.892456,661.231689 1123.291260,664.552917 
	C1117.645874,671.760864 1112.254395,679.168701 1106.561768,686.338196 
	C1099.270874,695.520569 1094.722412,696.832275 1084.609375,693.143738 
	C1073.038818,688.923584 1066.757080,681.000427 1066.686768,671.250488 
	C1066.608765,660.425720 1069.164429,650.155212 1072.612305,639.622253 
z"/>
<path fill="#FCFCFC" opacity="1.000000" stroke="none" 
	d="
M535.692749,652.635498 
	C542.214600,649.490479 548.673462,647.321838 555.552368,646.915100 
	C558.763916,646.725220 559.334961,645.326477 559.110229,642.476013 
	C558.333435,632.628967 555.488037,623.219177 553.240723,613.687866 
	C547.766846,590.472046 558.039734,568.823059 578.781677,559.548462 
	C583.549194,557.416748 587.420593,557.501770 591.602295,560.887390 
	C599.020325,566.893372 605.825378,573.428528 611.571838,581.062683 
	C614.319946,584.713501 615.376953,588.481689 614.289307,593.164246 
	C612.657166,600.191223 610.674316,606.993896 606.430908,612.917114 
	C604.817627,615.168945 603.049744,618.344666 599.763123,616.671936 
	C596.458618,614.990173 597.996216,611.850220 598.958374,609.146423 
	C599.959229,606.333557 601.145752,603.524780 601.652222,600.610168 
	C602.892761,593.470642 597.937683,589.459900 591.072388,591.740051 
	C586.670654,593.201965 583.767456,596.313477 581.717163,600.245728 
	C574.764771,613.579346 574.799683,628.129395 574.527588,642.613403 
	C574.487854,644.728394 575.792847,644.931946 577.512634,644.822876 
	C581.499878,644.569946 585.493652,644.372803 589.487488,644.299927 
	C590.796448,644.276123 592.757324,643.489197 592.961609,645.881531 
	C593.144653,648.026489 592.734619,649.702148 590.026794,650.202820 
	C586.443481,650.865295 582.962402,652.061218 579.402405,652.874756 
	C575.893372,653.676636 574.558472,655.636536 574.789307,659.294373 
	C575.293579,667.287537 575.075623,675.259155 573.037598,683.100342 
	C568.054565,702.271851 551.177246,716.047791 531.442871,716.960205 
	C516.951111,717.630188 503.619171,700.637939 507.500763,686.216309 
	C511.637024,670.848511 521.289001,659.958130 535.692749,652.635498 
z"/>
<path fill="#FCFCFC" opacity="1.000000" stroke="none" 
	d="
M750.658447,650.676636 
	C744.425720,653.502014 738.587158,656.317261 732.577026,658.700195 
	C729.970276,659.733826 729.137024,661.099060 729.107483,663.811218 
	C729.050842,669.011169 729.315125,674.131042 731.013123,679.072632 
	C733.193481,685.418274 736.325073,687.510071 742.982361,687.170593 
	C752.955566,686.661804 760.858215,681.427734 768.521057,675.770996 
	C774.974792,671.006714 780.473694,665.185608 786.004517,659.415955 
	C787.190002,658.179260 788.260681,656.873535 789.982544,658.870056 
	C791.266968,660.359314 792.939270,661.272278 790.982178,663.729187 
	C780.813843,676.494385 768.941223,687.087402 754.651001,695.211731 
	C741.069824,702.932800 729.086731,699.848389 717.727417,691.221558 
	C707.957153,683.801575 702.742004,673.349365 703.444824,661.281738 
	C705.708618,622.410767 723.563965,592.533752 757.698425,573.410889 
	C772.098999,565.343384 783.016113,567.837158 794.001587,578.511475 
	C797.519287,581.929565 798.200989,585.444580 797.727051,590.059204 
	C794.999817,616.613525 780.445862,634.702454 757.587708,646.996643 
	C755.394165,648.176392 753.184998,649.326965 750.658447,650.676636 
z"/>
<path fill="#FCFCFC" opacity="1.000000" stroke="none" 
	d="
M1223.303223,628.678345 
	C1218.300415,612.759277 1213.491333,597.197449 1211.803955,580.888245 
	C1211.735229,580.225586 1211.671509,579.561462 1211.636353,578.896362 
	C1211.237061,571.366211 1212.030029,570.446472 1219.670166,571.031616 
	C1227.314331,571.616943 1234.752930,573.477478 1242.198730,575.243225 
	C1244.724121,575.842041 1244.871338,577.269165 1244.753174,579.549133 
	C1243.875610,596.463074 1246.153076,612.965210 1251.651245,629.556335 
	C1256.192871,625.582092 1259.255493,620.885376 1262.511719,616.399353 
	C1272.510864,602.623657 1280.506592,587.680115 1287.462402,572.194763 
	C1289.051392,568.657410 1290.448242,567.563416 1294.408203,568.841248 
	C1307.005981,572.906555 1308.519775,575.817078 1302.485718,587.624573 
	C1292.909912,606.362366 1279.085815,621.929443 1264.837769,637.132141 
	C1257.020264,645.473389 1256.780518,645.465698 1261.518066,655.886475 
	C1266.051514,665.857910 1270.803955,675.738281 1275.790649,685.489746 
	C1277.261719,688.366577 1276.700439,690.015381 1274.521362,691.850342 
	C1269.922974,695.722473 1264.433716,697.489929 1258.722656,698.810913 
	C1256.550293,699.313416 1255.779419,697.645142 1254.824463,696.366089 
	C1248.536865,687.944153 1243.264648,678.921692 1238.984741,669.320679 
	C1238.313110,667.814148 1237.627686,666.313782 1236.750366,664.371643 
	C1228.550293,671.312073 1220.672607,678.126465 1212.296631,684.320129 
	C1204.936157,689.763062 1197.325317,694.827698 1189.719116,699.913940 
	C1186.056885,702.362915 1183.427124,702.257202 1181.060547,698.498474 
	C1178.453979,694.358459 1178.955322,692.599731 1183.318359,689.924988 
	C1199.831909,679.801392 1215.326904,668.380859 1228.970825,654.525635 
	C1231.344238,652.115417 1231.615234,650.256165 1230.300415,647.216858 
	C1227.733276,641.282776 1225.700684,635.117310 1223.303223,628.678345 
z"/>
<path fill="#FCFCFC" opacity="1.000000" stroke="none" 
	d="
M693.500366,578.638672 
	C696.441956,578.419434 698.966736,578.415039 701.414124,577.977661 
	C705.450378,577.256470 706.747803,579.594177 707.423767,582.851990 
	C708.183533,586.514221 704.953674,585.828979 703.268860,586.362122 
	C695.934021,588.682739 688.338623,589.749023 680.670593,589.895203 
	C677.917664,589.947693 676.563538,590.903809 675.390503,593.293701 
	C663.845276,616.814331 654.414795,641.033081 650.479797,667.116028 
	C649.780762,671.749451 649.571960,676.417236 650.013367,681.066040 
	C650.664612,687.926880 654.923157,691.178406 661.635681,689.899292 
	C669.212524,688.455627 676.306030,685.729065 682.716614,681.322083 
	C683.595154,680.718140 684.553284,678.849915 685.981140,680.639343 
	C687.183167,682.145874 687.128845,683.599670 685.659302,685.029846 
	C678.431091,692.064636 670.312622,697.766418 660.914429,701.513916 
	C659.736572,701.983582 658.266541,702.094543 656.999634,701.908997 
	C643.918945,699.993469 633.030273,694.216858 625.218506,683.317993 
	C620.656006,676.952332 622.357483,669.810730 623.466614,663.003296 
	C627.116821,640.601135 634.335327,619.203735 642.423279,598.075073 
	C643.183899,596.088074 644.409363,594.225159 644.343201,591.450134 
	C640.690918,591.450134 637.063110,591.311584 633.451904,591.496643 
	C630.849182,591.630066 629.663269,590.689636 628.869324,588.153870 
	C625.309082,576.783447 625.656799,575.389160 636.921265,577.253845 
	C648.197937,579.120605 653.752930,575.151184 658.346802,565.256897 
	C663.437195,554.293091 670.551270,544.296570 678.749023,535.213501 
	C680.984009,532.737061 683.190674,531.836182 686.613708,532.594971 
	C693.306152,534.078247 699.737061,536.138916 705.899963,539.126343 
	C708.574097,540.422668 709.074463,541.651794 707.010559,544.217773 
	C698.459473,554.849060 691.136841,566.321777 683.969299,578.658875 
	C687.310913,578.658875 690.179871,578.658875 693.500366,578.638672 
z"/>
<path fill="#FCFCFC" opacity="1.000000" stroke="none" 
	d="
M1525.562256,630.632751 
	C1523.029907,635.008179 1520.418457,634.037048 1517.313354,631.708435 
	C1510.200684,626.374573 1504.995728,619.654541 1501.618652,611.048706 
	C1481.758545,624.105286 1466.037109,640.331177 1457.926514,663.072266 
	C1454.236816,673.417664 1451.182861,683.940002 1449.050659,694.693604 
	C1448.227539,698.844482 1446.504272,699.391479 1443.162842,697.659302 
	C1441.542969,696.819519 1439.877808,696.061279 1438.291626,695.162720 
	C1426.596069,688.537231 1425.857300,687.178162 1429.089233,674.298523 
	C1437.018799,642.698975 1447.151611,611.819641 1459.878174,581.811096 
	C1461.698486,577.519043 1463.961182,573.479980 1466.575562,569.605225 
	C1468.186768,567.217102 1470.007690,566.276367 1472.845337,567.068176 
	C1479.950562,569.050476 1486.554688,572.010193 1492.551636,576.363525 
	C1494.795654,577.992554 1494.920532,579.158081 1493.171265,581.454895 
	C1484.111938,593.351074 1476.402832,609.602905 1473.187988,622.857971 
	C1474.164307,623.357056 1474.617676,622.507751 1475.138428,622.033875 
	C1489.815308,608.677002 1503.880371,594.765930 1515.083008,578.232422 
	C1518.161377,573.689026 1529.303589,573.477966 1532.853027,577.668213 
	C1534.000000,579.022095 1533.350952,580.146973 1532.978271,581.350281 
	C1529.072144,593.962585 1527.114502,606.615479 1532.025391,619.445923 
	C1532.573242,620.877075 1531.932739,622.039185 1531.128662,623.139771 
	C1529.364380,625.554932 1527.582397,627.957275 1525.562256,630.632751 
z"/>
<path fill="#FCFCFC" opacity="1.000000" stroke="none" 
	d="
M486.119690,682.488098 
	C485.964996,685.429565 485.667419,687.937134 485.801575,690.421387 
	C486.053802,695.091736 484.021942,695.291016 480.381378,693.745422 
	C470.412506,689.513123 464.309265,680.277771 465.758240,669.575623 
	C468.746887,647.501404 471.992462,625.420776 480.869659,604.718018 
	C484.029846,597.348022 488.077209,590.487427 494.440308,585.251892 
	C497.195740,582.984802 499.817993,582.550964 503.108124,584.147644 
	C509.768616,587.380005 515.899719,591.211853 520.664917,597.024536 
	C522.155579,598.842896 522.435791,600.117371 520.724915,602.079346 
	C513.094971,610.829041 507.646851,620.954773 503.590454,631.725586 
	C497.335022,648.335388 490.020721,664.595825 486.119690,682.488098 
z"/>
<path fill="#FBFBFB" opacity="1.000000" stroke="none" 
	d="
M533.519409,552.538452 
	C530.503723,556.540039 527.838379,560.367859 524.875305,563.949341 
	C523.757935,565.299805 523.784607,568.449768 520.962830,567.572327 
	C518.068848,566.672424 515.743591,564.930115 514.818420,561.638916 
	C510.491394,546.246338 514.206543,531.691345 519.177002,517.227112 
	C519.969360,514.921387 520.781372,513.616333 523.736938,514.474304 
	C533.708862,517.369080 542.202148,522.571716 549.580017,529.809937 
	C551.631348,531.822510 550.795288,532.994324 549.185974,534.631348 
	C543.703613,540.208008 538.485352,546.028870 533.519409,552.538452 
z"/>
<path fill="#FCFDFD" opacity="1.000000" stroke="none" 
	d="
M873.944214,986.883362 
	C881.920105,981.934082 889.566589,977.258240 899.201294,977.897766 
	C902.945496,978.146362 904.041504,979.275574 902.208618,982.776611 
	C901.432007,984.260010 900.723083,985.712891 899.544006,986.940002 
	C888.102600,998.847229 876.006226,1010.040222 863.106262,1020.352966 
	C860.503479,1022.433838 857.723633,1024.260742 854.532288,1025.383911 
	C851.184753,1026.562012 849.436584,1025.196899 848.847290,1021.924805 
	C848.262390,1018.677307 848.954529,1015.675598 850.494690,1012.775940 
	C856.072327,1002.275146 863.642456,993.586731 873.944214,986.883362 
z"/>
<path fill="#FAFBFB" opacity="1.000000" stroke="none" 
	d="
M921.221313,962.262939 
	C928.954285,948.329834 937.486328,935.475769 949.847046,925.642456 
	C951.526855,924.306152 953.349487,923.090576 955.259644,922.122314 
	C956.682617,921.401062 958.382324,920.622498 959.889954,922.134399 
	C961.270630,923.518982 960.968628,925.160767 960.484802,926.807861 
	C958.708313,932.855713 955.032410,937.822998 951.225464,942.658203 
	C941.073792,955.551636 929.069092,966.462402 914.815796,976.356567 
	C916.328918,970.825256 918.954163,966.823059 921.221313,962.262939 
z"/>
<path fill="#FFFFFF" opacity="1.000000" stroke="none" 
	d="
M894.600159,998.560791 
	C894.795654,997.911926 895.230042,997.533325 895.664429,997.154785 
	C895.698792,997.720581 895.733154,998.286316 895.565430,999.089600 
	C895.188660,999.161804 895.013916,998.996521 894.600159,998.560791 
z"/>
<path fill="#FCFCFC" opacity="1.000000" stroke="none" 
	d="
M1232.311523,953.308472 
	C1224.267700,961.534668 1216.075562,969.034851 1206.934326,975.106384 
	C1205.734619,974.575378 1205.847900,973.885071 1206.120361,973.307495 
	C1214.346191,955.870300 1224.038086,939.451233 1238.937012,926.728333 
	C1240.946289,925.012512 1243.189209,923.519897 1245.487793,922.212036 
	C1246.859741,921.431458 1248.553223,920.580566 1250.144531,921.954529 
	C1251.664673,923.267151 1251.248535,925.067139 1250.887451,926.616943 
	C1249.888306,930.906738 1247.447388,934.526733 1245.002808,938.095642 
	C1241.324341,943.465515 1237.166504,948.450745 1232.311523,953.308472 
z"/>
<path fill="#FFFFFF" opacity="1.000000" stroke="none" 
	d="
M1187.768799,992.807007 
	C1187.970459,992.319153 1188.312988,991.947998 1188.655640,991.576782 
	C1188.649658,992.002686 1188.643677,992.428528 1188.412842,993.007935 
	C1188.187988,993.161438 1187.909790,992.923706 1187.768799,992.807007 
z"/>
<path fill="#FFFFFF" opacity="1.000000" stroke="none" 
	d="
M1192.368408,1010.389648 
	C1192.191040,1011.023804 1191.768555,1011.395752 1191.346069,1011.767639 
	C1191.306030,1011.217773 1191.265991,1010.667969 1191.411011,1009.879150 
	C1191.771729,1009.802673 1191.947510,1009.965088 1192.368408,1010.389648 
z"/>
<path fill="#FDFDFD" opacity="1.000000" stroke="none" 
	d="
M1017.265747,1026.339355 
	C1015.123413,1026.889282 1013.360718,1027.321045 1011.337891,1026.616577 
	C1018.546021,1009.872620 1027.072876,994.230347 1042.911133,983.972412 
	C1045.853760,982.066650 1048.984619,980.516418 1052.385498,979.589966 
	C1057.021240,978.327026 1059.809326,980.450806 1059.858521,985.319763 
	C1059.884277,987.869995 1059.132935,990.294495 1057.911621,992.474243 
	C1048.762695,1008.802490 1035.673828,1020.468262 1017.265747,1026.339355 
z"/>
<path fill="#FFFFFF" opacity="1.000000" stroke="none" 
	d="
M1023.020630,998.025146 
	C1022.894287,998.420044 1022.607239,998.653809 1022.320251,998.887634 
	C1022.271057,998.600769 1022.221863,998.313965 1022.349426,997.790894 
	C1022.526184,997.554749 1022.859985,997.864014 1023.020630,998.025146 
z"/>
<path fill="#FFFFFF" opacity="1.000000" stroke="none" 
	d="
M709.326904,1003.376099 
	C709.603333,1003.334534 709.817322,1003.513062 709.786499,1003.581726 
	C709.570679,1004.062744 709.336609,1004.040588 709.326904,1003.376099 
z"/>
<path fill="#FFFFFF" opacity="1.000000" stroke="none" 
	d="
M1523.367188,1010.348267 
	C1523.180054,1010.936584 1523.080811,1011.843689 1522.278564,1011.463501 
	C1522.110962,1011.384155 1522.276001,1010.602539 1522.497681,1009.942139 
	C1522.856201,1009.872559 1523.005005,1010.005493 1523.367188,1010.348267 
z"/>
<path fill="#000000" opacity="1.000000" stroke="none" 
	d="
M1603.273315,649.699341 
	C1604.086182,650.049683 1604.356934,650.643127 1603.299072,651.072571 
	C1603.213867,650.708679 1603.128662,650.344849 1603.273315,649.699341 
z"/>
<path fill="#040404" opacity="1.000000" stroke="none" 
	d="
M524.851318,696.756958 
	C524.682312,693.777893 525.279907,691.339722 526.450562,689.118408 
	C532.926514,676.830688 542.334412,667.496094 554.856873,661.413879 
	C556.303101,660.711426 558.560913,659.729065 559.483765,660.335449 
	C561.058411,661.370300 560.156250,663.743408 559.826599,665.421143 
	C556.804138,680.804626 548.968445,693.131348 535.910889,701.924133 
	C529.186951,706.451904 526.818909,705.336121 524.851318,696.756958 
z"/>
<path fill="#050505" opacity="1.000000" stroke="none" 
	d="
M749.374756,639.392822 
	C743.786133,643.306519 738.414368,646.884277 732.155029,649.676697 
	C732.157288,645.799438 733.707764,642.684143 734.922913,639.530212 
	C740.675293,624.599121 748.726196,611.206665 761.345276,600.979858 
	C765.764526,597.398438 770.739014,594.850037 776.114929,592.923706 
	C780.136169,591.482788 780.575012,593.058838 779.993164,596.449158 
	C778.592834,604.609314 775.486938,612.032593 770.627319,618.716064 
	C764.804688,626.724182 757.625916,633.354858 749.374756,639.392822 
z"/>
</svg>